<svg width="2804" height="806" viewBox="0 0 2804 806" fill="none" xmlns="http://www.w3.org/2000/svg">
<path d="M1 785.961C172.194 816.513 266.49 811.923 428.74 725.634C543.695 617.526 626.169 602.497 780.378 593.668C983.165 550.167 1019.7 520.181 964.07 457.932C889.083 411.23 942.813 386.494 1200.25 344.819C1461.51 320.673 1494.54 311.578 1509.9 297.06C1720.45 193.125 1767.38 209.861 1869.41 220.395C2104.66 232.196 2125.63 194.453 2081.97 94.7138C2025.75 -18.8868 2093.58 -23.2828 2370.62 62.0367L2606.8 129.905L2761.63 235.477C2825.61 293.19 2807.88 310.809 2735.38 330.994C2585.8 385.677 2580.79 405.658 2606.8 436.567C2696.93 498.585 2608.5 501.623 2428.36 501.921C2319.22 517.556 2322.55 543.563 2370.62 601.209L2446.73 716.836" stroke="#F3BB44" strokeWidth="5" stroke-dasharray="2 6"/>
</svg>
