<?xml version="1.0" encoding="utf-8"?>
<!-- Generator: Adobe Illustrator 24.3.0, SVG Export Plug-In . SVG Version: 6.00 Build 0)  -->
<svg version="1.1" id="Layer_1" xmlns="http://www.w3.org/2000/svg" xmlns:xlink="http://www.w3.org/1999/xlink" x="0px" y="0px"
	 viewBox="0 0 800 325" style="enable-background:new 0 0 800 325;" xml:space="preserve">
<style type="text/css">
	.st0{opacity:5.000000e-02;}
	.st1{fill:none;stroke:#A3A3A3;strokeWidth:0.5;stroke-miterlimit:10;}
	.st2{fill:url(#SVGID_1_);}
</style>
<g class="st0">
	<g>
		<line class="st1" x1="41" y1="-161" x2="800" y2="-161"/>
	</g>
	<g>
		<line class="st1" x1="41.5" y1="-134" x2="800.5" y2="-134"/>
	</g>
	<g>
		<line class="st1" x1="42" y1="-107" x2="801" y2="-107"/>
	</g>
	<g>
		<line class="st1" x1="42.5" y1="-80" x2="801.5" y2="-80"/>
	</g>
	<g>
		<line class="st1" x1="43" y1="-53" x2="802" y2="-53"/>
	</g>
	<g>
		<line class="st1" x1="43.5" y1="-26" x2="802.5" y2="-26"/>
	</g>
	<g>
		<line class="st1" x1="44" y1="1" x2="803" y2="1"/>
	</g>
	<g>
		<line class="st1" x1="44.5" y1="28" x2="803.5" y2="28"/>
	</g>
	<g>
		<line class="st1" x1="45" y1="55" x2="804" y2="55"/>
	</g>
	<g>
		<line class="st1" x1="45.5" y1="82" x2="804.5" y2="82"/>
	</g>
	<g>
		<line class="st1" x1="46" y1="109" x2="805" y2="109"/>
	</g>
	<g>
		<line class="st1" x1="46.5" y1="136" x2="805.5" y2="136"/>
	</g>
	<g>
		<line class="st1" x1="47" y1="163" x2="806" y2="163"/>
	</g>
	<g>
		<line class="st1" x1="47.5" y1="190" x2="806.5" y2="190"/>
	</g>
	<g>
		<line class="st1" x1="48" y1="217" x2="807" y2="217"/>
	</g>
	<g>
		<line class="st1" x1="48.5" y1="244" x2="807.5" y2="244"/>
	</g>
	<g>
		<line class="st1" x1="49" y1="271" x2="808" y2="271"/>
	</g>
	<g>
		<line class="st1" x1="49.5" y1="298" x2="808.5" y2="298"/>
	</g>
	<g>
		<line class="st1" x1="50" y1="325" x2="809" y2="325"/>
	</g>
	<g>
		<line class="st1" x1="50.5" y1="352" x2="809.5" y2="352"/>
	</g>
	<g>
		<line class="st1" x1="51" y1="379" x2="810" y2="379"/>
	</g>
	<g>
		<line class="st1" x1="51.5" y1="406" x2="810.5" y2="406"/>
	</g>
	<g>
		<line class="st1" x1="52" y1="433" x2="811" y2="433"/>
	</g>
	<g>
		<line class="st1" x1="52.5" y1="460" x2="811.5" y2="460"/>
	</g>
	<g>
		<line class="st1" x1="53" y1="487" x2="812" y2="487"/>
	</g>
	<g>
		<line class="st1" x1="53.5" y1="514" x2="812.5" y2="514"/>
	</g>
	<g>
		<line class="st1" x1="54" y1="541" x2="813" y2="541"/>
	</g>
	<g>
		<line class="st1" x1="76" y1="576" x2="76" y2="-183"/>
	</g>
	<g>
		<line class="st1" x1="103" y1="575.5" x2="103" y2="-183.5"/>
	</g>
	<g>
		<line class="st1" x1="130" y1="575" x2="130" y2="-184"/>
	</g>
	<g>
		<line class="st1" x1="157" y1="574.5" x2="157" y2="-184.5"/>
	</g>
	<g>
		<line class="st1" x1="184" y1="574" x2="184" y2="-185"/>
	</g>
	<g>
		<line class="st1" x1="211" y1="573.5" x2="211" y2="-185.5"/>
	</g>
	<g>
		<line class="st1" x1="238" y1="573" x2="238" y2="-186"/>
	</g>
	<g>
		<line class="st1" x1="265" y1="572.5" x2="265" y2="-186.5"/>
	</g>
	<g>
		<line class="st1" x1="292" y1="572" x2="292" y2="-187"/>
	</g>
	<g>
		<line class="st1" x1="319" y1="571.5" x2="319" y2="-187.5"/>
	</g>
	<g>
		<line class="st1" x1="346" y1="571" x2="346" y2="-188"/>
	</g>
	<g>
		<line class="st1" x1="373" y1="570.5" x2="373" y2="-188.5"/>
	</g>
	<g>
		<line class="st1" x1="400" y1="570" x2="400" y2="-189"/>
	</g>
	<g>
		<line class="st1" x1="427" y1="569.5" x2="427" y2="-189.5"/>
	</g>
	<g>
		<line class="st1" x1="454" y1="569" x2="454" y2="-190"/>
	</g>
	<g>
		<line class="st1" x1="481" y1="568.5" x2="481" y2="-190.5"/>
	</g>
	<g>
		<line class="st1" x1="508" y1="568" x2="508" y2="-191"/>
	</g>
	<g>
		<line class="st1" x1="535" y1="567.5" x2="535" y2="-191.5"/>
	</g>
	<g>
		<line class="st1" x1="562" y1="567" x2="562" y2="-192"/>
	</g>
	<g>
		<line class="st1" x1="589" y1="566.5" x2="589" y2="-192.5"/>
	</g>
	<g>
		<line class="st1" x1="616" y1="566" x2="616" y2="-193"/>
	</g>
	<g>
		<line class="st1" x1="643" y1="565.5" x2="643" y2="-193.5"/>
	</g>
	<g>
		<line class="st1" x1="670" y1="565" x2="670" y2="-194"/>
	</g>
	<g>
		<line class="st1" x1="697" y1="564.5" x2="697" y2="-194.5"/>
	</g>
	<g>
		<line class="st1" x1="724" y1="564" x2="724" y2="-195"/>
	</g>
	<g>
		<line class="st1" x1="751" y1="563.5" x2="751" y2="-195.5"/>
	</g>
	<g>
		<line class="st1" x1="778" y1="563" x2="778" y2="-196"/>
	</g>
</g>
<linearGradient id="SVGID_1_" gradientUnits="userSpaceOnUse" x1="0" y1="305" x2="606" y2="305" gradientTransform="matrix(1 0 0 -1 0 600)">
	<stop  offset="0" style="stop-color:#FFFFFF"/>
	<stop  offset="0.2634" style="stop-color:#FFFFFF"/>
	<stop  offset="0.5208" style="stop-color:#FFFFFF;stop-opacity:0.6882"/>
	<stop  offset="1" style="stop-color:#FFFFFF;stop-opacity:0"/>
</linearGradient>
<rect y="-5" class="st2" width="606" height="600"/>
</svg>
