<svg width="205" height="31" viewBox="0 0 205 31" fill="none" xmlns="http://www.w3.org/2000/svg">
<path d="M2 21.1644C3.29875 20.6019 4.64381 20.0964 6.04731 19.5948C15.9965 16.0385 26.6582 13.0144 37.8045 10.5233C45.011 8.91266 52.4302 7.4895 60.2885 6.97314C61.5414 6.89082 66.3555 6.78666 67.9081 6.80695C68.1991 6.81075 70.5343 6.83633 70.9595 7.16704C72.2213 8.14825 69.563 10.7267 68.9587 11.405C66.4628 14.2071 63.0167 16.6564 59.4754 19.1331C55.1139 22.1835 50.1638 25.2739 46.9498 28.6986C46.868 28.7857 46.6842 28.8938 46.7853 28.9756C46.8652 29.0401 47.0966 28.9609 47.2239 28.9202C47.9021 28.703 48.5378 28.4534 49.179 28.2092C57.349 25.0973 65.1881 21.7709 73.3715 18.6668C81.0493 15.7546 88.9083 12.9435 96.9062 10.2601C99.9472 9.23979 104.713 7.68828 108.162 6.77925C109.564 6.40974 112.103 5.85683 113.771 5.69898C114.935 5.58893 117.224 5.53262 117.051 6.46071C116.833 7.63738 114.779 8.78784 113.662 9.78461C113.491 9.93662 112.699 10.5027 113.753 10.4078C117.196 10.0978 120.615 8.9099 123.712 8.17344C127.569 7.25605 131.478 6.36949 135.57 5.74976C138.13 5.36204 141.779 4.88049 143.72 6.18833C146.595 8.12541 142.269 10.8991 140.467 12.6238C140.3 12.784 139.264 13.5313 139.49 13.7456C139.787 14.0285 140.745 13.6116 141.308 13.464C143.129 12.9863 145.519 12.247 147.191 11.7374C153.014 9.96324 158.853 7.86345 165.427 6.84388C166.072 6.74394 167.57 6.44164 168.268 6.6823C168.785 6.86033 168.567 7.43496 168.497 7.68871C168.035 9.35549 175.386 7.37307 175.788 7.28707C181.285 6.11001 186.676 4.81053 192.159 3.61692C194.822 3.03728 197.541 2.4601 200.373 2.12116C200.883 2.06014 201.953 1.88463 202.447 2.11655C203.278 2.50664 202.913 3.56235 202.958 4.04626" stroke="#F3BB44" stroke-width="3" stroke-linecap="round"/>
</svg>
